<?xml version="1.0" encoding="utf-8"?>
<svg id="master-artboard" viewBox="0 0 1849.3392333984375 462.3612060546875" version="1.1" xmlns="http://www.w3.org/2000/svg" x="0px" y="0px" enable-background="new 0 0 1400 980" width="1849.3392333984375px" height="462.3612060546875px"><rect id="ee-background" x="0" y="0" width="1849.3392333984375" height="462.3612060546875" style="fill: rgb(0, 0, 0); fill-opacity: 0; pointer-events: none;"/>
<path d="M 343 124.5999984741211 L 344.8999938964844 128.39999389648438 L 349.1000061035156 129 L 346 132 L 346.79998779296875 136.1999969482422 L 343 134.1999969482422 L 339.20001220703125 136.1999969482422 L 340 132 L 336.8999938964844 129 L 341.1000061035156 128.39999389648438 Z" fill="#FFFFFF" transform="matrix(1, 0, 0, 1, 252.52864603141379, 5.392070733766843)"/><path d="M 372.70001220703125 51.099998474121094 L 375.29998779296875 56.400001525878906 L 381.1000061035156 57.29999923706055 L 376.8999938964844 61.400001525878906 L 377.8999938964844 67.19999694824219 L 372.70001220703125 64.4000015258789 L 367.5 67.19999694824219 L 368.5 61.400001525878906 L 364.29998779296875 57.29999923706055 L 370.1000061035156 56.400001525878906 Z" fill="#FFFFFF" transform="matrix(1, 0, 0, 1, 252.52864603141379, 5.392070733766843)"/><path d="M 33 139.1999969482422 L 36.20000076293945 145.60000610351562 L 43.29999923706055 146.6999969482422 L 38.099998474121094 151.6999969482422 L 39.29999923706055 158.6999969482422 L 33 155.39999389648438 L 26.700000762939453 158.6999969482422 L 27.899999618530273 151.6999969482422 L 22.700000762939453 146.6999969482422 L 29.799999237060547 145.60000610351562 Z" fill="#FFFFFF" transform="matrix(1, 0, 0, 1, 252.52864603141379, 5.392070733766843)"/><path d="M 847.5999755859375 81.30000305175781 L 850.5999755859375 87.4000015258789 L 857.2999877929688 88.30000305175781 L 852.5 93 L 853.5999755859375 99.69999694824219 L 847.5999755859375 96.5 L 841.7000122070312 99.69999694824219 L 842.7999877929688 93 L 838 88.30000305175781 L 844.7000122070312 87.4000015258789 Z" fill="#FFFFFF" transform="matrix(1, 0, 0, 1, 590.4317527208669, 80.88106151745825)"/><path d="M 1317.4000244140625 53.20000076293945 L 1319.199951171875 56.70000076293945 L 1323.0999755859375 57.29999923706055 L 1320.300048828125 60.099998474121094 L 1320.9000244140625 64 L 1317.4000244140625 62.20000076293945 L 1313.9000244140625 64 L 1314.5 60.099998474121094 L 1311.699951171875 57.29999923706055 L 1315.5999755859375 56.70000076293945 Z" fill="#FFFFFF" transform="matrix(1, 0, 0, 1, -115.03083272835185, 31.453746759157468)"/><path d="M 576.5999755859375 569.7000122070312 L 578.2999877929688 573.2000122070312 L 582.2000122070312 573.7999877929688 L 579.4000244140625 576.5 L 580 580.2999877929688 L 576.5999755859375 578.5 L 573.2000122070312 580.2999877929688 L 573.7999877929688 576.5 L 571 573.7999877929688 L 574.9000244140625 573.2000122070312 Z" fill="#FFFFFF" transform="matrix(1, 0, 0, 1, 793.5331015978201, -478.09694293810816)"/><path d="M 981 538.2000122070312 L 982.2000122070312 540.5999755859375 L 984.7999877929688 541 L 982.9000244140625 542.7999877929688 L 983.4000244140625 545.5 L 981 544.2000122070312 L 978.5999755859375 545.5 L 979.0999755859375 542.7999877929688 L 977.2000122070312 541 L 979.7999877929688 540.5999755859375 Z" fill="#FFFFFF" transform="matrix(1, 0, 0, 1, 457.4273276720388, -510.44935993029566)"/><path d="M 1187 408 L 1188.199951171875 410.29998779296875 L 1190.800048828125 410.70001220703125 L 1188.9000244140625 412.6000061035156 L 1189.4000244140625 415.20001220703125 L 1187 414 L 1184.5999755859375 415.20001220703125 L 1185.0999755859375 412.6000061035156 L 1183.199951171875 410.70001220703125 L 1185.800048828125 410.29998779296875 Z" fill="#FFFFFF" transform="matrix(1, 0, 0, 1, -666.8194374646799, -362.1674080259988)"/>
<path d="M 343 124.5999984741211 L 344.8999938964844 128.39999389648438 L 349.1000061035156 129 L 346 132 L 346.79998779296875 136.1999969482422 L 343 134.1999969482422 L 339.20001220703125 136.1999969482422 L 340 132 L 336.8999938964844 129 L 341.1000061035156 128.39999389648438 Z" fill="#FFFFFF" transform="matrix(1, 0, 0, 1, 991.3084311876638, -111.75683215929956)"/><path d="M 1187 408 L 1188.199951171875 410.29998779296875 L 1190.800048828125 410.70001220703125 L 1188.9000244140625 412.6000061035156 L 1189.4000244140625 415.20001220703125 L 1187 414 L 1184.5999755859375 415.20001220703125 L 1185.0999755859375 412.6000061035156 L 1183.199951171875 410.70001220703125 L 1185.800048828125 410.29998779296875 Z" fill="#FFFFFF" transform="matrix(1, 0, 0, 1, -735.1937660779612, -393.85548785998316)"/><path d="M 372.70001220703125 51.099998474121094 L 375.29998779296875 56.400001525878906 L 381.1000061035156 57.29999923706055 L 376.8999938964844 61.400001525878906 L 377.8999938964844 67.19999694824219 L 372.70001220703125 64.4000015258789 L 367.5 67.19999694824219 L 368.5 61.400001525878906 L 364.29998779296875 57.29999923706055 L 370.1000061035156 56.400001525878906 Z" fill="#FFFFFF" transform="matrix(1, 0, 0, 1, 62.92998270133566, -1.8636584646889673)"/><path d="M 576.5999755859375 569.7000122070312 L 578.2999877929688 573.2000122070312 L 582.2000122070312 573.7999877929688 L 579.4000244140625 576.5 L 580 580.2999877929688 L 576.5999755859375 578.5 L 573.2000122070312 580.2999877929688 L 573.7999877929688 576.5 L 571 573.7999877929688 L 574.9000244140625 573.2000122070312 Z" fill="#FFFFFF" transform="matrix(1, 0, 0, 1, 721.7612815294607, -447.6167488463113)"/><path d="M 576.5999755859375 569.7000122070312 L 578.2999877929688 573.2000122070312 L 582.2000122070312 573.7999877929688 L 579.4000244140625 576.5 L 580 580.2999877929688 L 576.5999755859375 578.5 L 573.2000122070312 580.2999877929688 L 573.7999877929688 576.5 L 571 573.7999877929688 L 574.9000244140625 573.2000122070312 Z" fill="#FFFFFF" transform="matrix(1, 0, 0, 1, 636.9683738146169, -542.4581489927957)"/><path d="M 1187 408 L 1188.199951171875 410.29998779296875 L 1190.800048828125 410.70001220703125 L 1188.9000244140625 412.6000061035156 L 1189.4000244140625 415.20001220703125 L 1187 414 L 1184.5999755859375 415.20001220703125 L 1185.0999755859375 412.6000061035156 L 1183.199951171875 410.70001220703125 L 1185.800048828125 410.29998779296875 Z" fill="#FFFFFF" transform="matrix(1, 0, 0, 1, -856.5373940076488, -376.1726875670144)"/><path d="M 1187 408 L 1188.199951171875 410.29998779296875 L 1190.800048828125 410.70001220703125 L 1188.9000244140625 412.6000061035156 L 1189.4000244140625 415.20001220703125 L 1187 414 L 1184.5999755859375 415.20001220703125 L 1185.0999755859375 412.6000061035156 L 1183.199951171875 410.70001220703125 L 1185.800048828125 410.29998779296875 Z" fill="#FFFFFF" transform="matrix(1, 0, 0, 1, -697.7576698865549, -300.0713692076394)"/><g transform="matrix(0.029162235558032993, 0, 0, 0.029162235558032993, 1428.6867270861012, 94.47790905163797)"><g id="g-1" transform="matrix(1, 0, 0, 1, 0, 0)">
	<g id="g-2">
		<path class="st0" d="M652,46c27.6,0,50,22.4,50,50s-22.4,50-50,50s-50-22.4-50-50S624.4,46,652,46z" style="fill: rgb(255, 255, 255);"/>
	</g>
</g></g><g transform="matrix(0.02916224114596844, 0, 0, 0.02916224114596844, 1474.3606772814137, 100.31937023327856)"><g id="g-3" transform="matrix(1, 0, 0, 1, 0, 0)">
	<g id="g-4">
		<path class="st0" d="M652,46c27.6,0,50,22.4,50,50s-22.4,50-50,50s-50-22.4-50-50S624.4,46,652,46z" style="fill: rgb(255, 255, 255);"/>
	</g>
</g></g><path d="M 576.5999755859375 569.7000122070312 L 578.2999877929688 573.2000122070312 L 582.2000122070312 573.7999877929688 L 579.4000244140625 576.5 L 580 580.2999877929688 L 576.5999755859375 578.5 L 573.2000122070312 580.2999877929688 L 573.7999877929688 576.5 L 571 573.7999877929688 L 574.9000244140625 573.2000122070312 Z" fill="#FFFFFF" transform="matrix(1, 0, 0, 1, 942.8362021837576, -520.4096870787332)"/><g transform="matrix(0.02916224487125874, 0, 0, 0.02916224487125874, 1486.0435386095387, 152.44271465466522)"><g id="g-7" transform="matrix(1, 0, 0, 1, 0, 0)">
	<g id="g-8">
		<path class="st0" d="M652,46c27.6,0,50,22.4,50,50s-22.4,50-50,50s-50-22.4-50-50S624.4,46,652,46z" style="fill: rgb(255, 255, 255);"/>
	</g>
</g></g><g transform="matrix(0.02916224487125874, 0, 0, 0.02916224487125874, 442.677861729656, 87.73787304089578)"><g id="g-9" transform="matrix(1, 0, 0, 1, 0, 0)">
	<g id="g-10">
		<path class="st0" d="M652,46c27.6,0,50,22.4,50,50s-22.4,50-50,50s-50-22.4-50-50S624.4,46,652,46z" style="fill: rgb(255, 255, 255);"/>
	</g>
</g></g><g transform="matrix(0.02916224487125874, 0, 0, 0.02916224487125874, 314.1668448839529, 67.06826778576882)"><g id="g-11" transform="matrix(1, 0, 0, 1, 0, 0)">
	<g id="g-12">
		<path class="st0" d="M652,46c27.6,0,50,22.4,50,50s-22.4,50-50,50s-50-22.4-50-50S624.4,46,652,46z" style="fill: rgb(255, 255, 255);"/>
	</g>
</g></g><g transform="matrix(0.02916224487125874, 0, 0, 0.02916224487125874, 364.49284128287866, 41.905269586305934)"><g id="g-13" transform="matrix(1, 0, 0, 1, 0, 0)">
	<g id="g-14">
		<path class="st0" d="M652,46c27.6,0,50,22.4,50,50s-22.4,50-50,50s-50-22.4-50-50S624.4,46,652,46z" style="fill: rgb(255, 255, 255);"/>
	</g>
</g></g><g transform="matrix(0.02916224487125874, 0, 0, 0.02916224487125874, 385.1624503527029, 130.87443920300507)"><g id="g-15" transform="matrix(1, 0, 0, 1, 0, 0)">
	<g id="g-16">
		<path class="st0" d="M652,46c27.6,0,50,22.4,50,50s-22.4,50-50,50s-50-22.4-50-50S624.4,46,652,46z" style="fill: rgb(255, 255, 255);"/>
	</g>
</g></g><g transform="matrix(0.02916224487125874, 0, 0, 0.02916224487125874, 565.7968039903982, 76.95373150036846)"><g id="g-17" transform="matrix(1, 0, 0, 1, 0, 0)">
	<g id="g-18">
		<path class="st0" d="M652,46c27.6,0,50,22.4,50,50s-22.4,50-50,50s-50-22.4-50-50S624.4,46,652,46z" style="fill: rgb(255, 255, 255);"/>
	</g>
</g></g><g transform="matrix(0.02916224487125874, 0, 0, 0.02916224487125874, 540.6338096056326, 106.61011882947003)"><g id="g-19" transform="matrix(1, 0, 0, 1, 0, 0)">
	<g id="g-20">
		<path class="st0" d="M652,46c27.6,0,50,22.4,50,50s-22.4,50-50,50s-50-22.4-50-50S624.4,46,652,46z" style="fill: rgb(255, 255, 255);"/>
	</g>
</g></g><g transform="matrix(0.02916224487125874, 0, 0, 0.02916224487125874, 650.2726035509451, 66.16958995984109)"><g id="g-21" transform="matrix(1, 0, 0, 1, 0, 0)">
	<g id="g-22">
		<path class="st0" d="M652,46c27.6,0,50,22.4,50,50s-22.4,50-50,50s-50-22.4-50-50S624.4,46,652,46z" style="fill: rgb(255, 255, 255);"/>
	</g>
</g></g><g transform="matrix(0.02916224487125874, 0, 0, 0.02916224487125874, 738.3430686388357, 122.78633495495825)"><g id="g-23" transform="matrix(1, 0, 0, 1, 0, 0)">
	<g id="g-24">
		<path class="st0" d="M652,46c27.6,0,50,22.4,50,50s-22.4,50-50,50s-50-22.4-50-50S624.4,46,652,46z" style="fill: rgb(255, 255, 255);"/>
	</g>
</g></g><g transform="matrix(0.02916224487125874, 0, 0, 0.02916224487125874, 1169.7087607775075, 67.06826778576882)"><g id="g-25" transform="matrix(1, 0, 0, 1, 0, 0)">
	<g id="g-26">
		<path class="st0" d="M652,46c27.6,0,50,22.4,50,50s-22.4,50-50,50s-50-22.4-50-50S624.4,46,652,46z" style="fill: rgb(255, 255, 255);"/>
	</g>
</g></g><g transform="matrix(0.02916224487125874, 0, 0, 0.02916224487125874, 1487.8409018907887, 28.42509456799536)"><g id="g-27" transform="matrix(1, 0, 0, 1, 0, 0)">
	<g id="g-28">
		<path class="st0" d="M652,46c27.6,0,50,22.4,50,50s-22.4,50-50,50s-50-22.4-50-50S624.4,46,652,46z" style="fill: rgb(255, 255, 255);"/>
	</g>
</g></g><g transform="matrix(0.02916224487125874, 0, 0, 0.02916224487125874, 1588.4928794298512, 81.44712444470437)"><g id="g-29" transform="matrix(1, 0, 0, 1, 0, 0)">
	<g id="g-30">
		<path class="st0" d="M652,46c27.6,0,50,22.4,50,50s-22.4,50-50,50s-50-22.4-50-50S624.4,46,652,46z" style="fill: rgb(255, 255, 255);"/>
	</g>
</g></g><g transform="matrix(0.02916224487125874, 0, 0, 0.02916224487125874, 1551.647054234539, 109.30615612195047)"><g id="g-31" transform="matrix(1, 0, 0, 1, 0, 0)">
	<g id="g-32">
		<path class="st0" d="M652,46c27.6,0,50,22.4,50,50s-22.4,50-50,50s-50-22.4-50-50S624.4,46,652,46z" style="fill: rgb(255, 255, 255);"/>
	</g>
</g></g><g transform="matrix(0.02916224487125874, 0, 0, 0.02916224487125874, 1247.8937583361012, 23.93170162365942)"><g id="g-33" transform="matrix(1, 0, 0, 1, 0, 0)">
	<g id="g-34">
		<path class="st0" d="M652,46c27.6,0,50,22.4,50,50s-22.4,50-50,50s-50-22.4-50-50S624.4,46,652,46z" style="fill: rgb(255, 255, 255);"/>
	</g>
</g></g><g transform="matrix(0.02916224487125874, 0, 0, 0.02916224487125874, 1372.8100181017264, 38.310558282595)"><g id="g-35" transform="matrix(1, 0, 0, 1, 0, 0)">
	<g id="g-36">
		<path class="st0" d="M652,46c27.6,0,50,22.4,50,50s-22.4,50-50,50s-50-22.4-50-50S624.4,46,652,46z" style="fill: rgb(255, 255, 255);"/>
	</g>
</g></g><path d="M 1187 408 L 1188.199951171875 410.29998779296875 L 1190.800048828125 410.70001220703125 L 1188.9000244140625 412.6000061035156 L 1189.4000244140625 415.20001220703125 L 1187 414 L 1184.5999755859375 415.20001220703125 L 1185.0999755859375 412.6000061035156 L 1183.199951171875 410.70001220703125 L 1185.800048828125 410.29998779296875 Z" fill="#FFFFFF" transform="matrix(1, 0, 0, 1, -572.5329994763988, -388.4634285338113)"/><g transform="matrix(0.02916224487125874, 0, 0, 0.02916224487125874, 776.0875449571951, 17.640946351747772)"><g id="g-37" transform="matrix(1, 0, 0, 1, 0, 0)">
	<g id="g-38">
		<path class="st0" d="M652,46c27.6,0,50,22.4,50,50s-22.4,50-50,50s-50-22.4-50-50S624.4,46,652,46z" style="fill: rgb(255, 255, 255);"/>
	</g>
</g></g><g transform="matrix(0.02916224487125874, 0, 0, 0.02916224487125874, 1094.2197471056327, 20.336981736879636)"><g id="g-39" transform="matrix(1, 0, 0, 1, 0, 0)">
	<g id="g-40">
		<path class="st0" d="M652,46c27.6,0,50,22.4,50,50s-22.4,50-50,50s-50-22.4-50-50S624.4,46,652,46z" style="fill: rgb(255, 255, 255);"/>
	</g>
</g></g><path d="M 1187 408 L 1188.199951171875 410.29998779296875 L 1190.800048828125 410.70001220703125 L 1188.9000244140625 412.6000061035156 L 1189.4000244140625 415.20001220703125 L 1187 414 L 1184.5999755859375 415.20001220703125 L 1185.0999755859375 412.6000061035156 L 1183.199951171875 410.70001220703125 L 1185.800048828125 410.29998779296875 Z" fill="#FFFFFF" transform="matrix(1, 0, 0, 1, -708.2334389295237, -268.04051593615503)"/><path d="M 1187 408 L 1188.199951171875 410.29998779296875 L 1190.800048828125 410.70001220703125 L 1188.9000244140625 412.6000061035156 L 1189.4000244140625 415.20001220703125 L 1187 414 L 1184.5999755859375 415.20001220703125 L 1185.0999755859375 412.6000061035156 L 1183.199951171875 410.70001220703125 L 1185.800048828125 410.29998779296875 Z" fill="#FFFFFF" transform="matrix(1, 0, 0, 1, -808.8854164685862, -313.8731270201394)"/><path d="M 416.5 268.100006 H 468.400002 V 270.000006 H 416.5 V 268.100006 Z" class="st0" style="fill: rgb(49, 63, 91);" transform="matrix(1.3518211841583252, 0, 0, -1.3518211841583252, 535.7436728868825, 675.112590753298)"/><path d="M 424.200012 263.899994 H 463.600014 V 265.599994 H 424.200012 V 263.899994 Z" class="st0" style="fill: rgb(49, 63, 91);" transform="matrix(1.3518211841583252, 0, 0, -1.3518211841583252, 535.7436728868825, 675.112590753298)"/><path d="M 424.200012 273.200012 H 463.600014 V 274.900012 H 424.200012 V 273.200012 Z" class="st0" style="fill: rgb(49, 63, 91);" transform="matrix(1.3518211841583252, 0, 0, -1.3518211841583252, 535.7436728868825, 675.112590753298)"/><path d="M 197.199997 270.700012 H 281.699997 V 272.400012 H 197.199997 V 270.700012 Z" class="st0" style="fill: rgb(49, 63, 91);" transform="matrix(1.3518213033676147, 0, 0, -1.3518213033676147, 232.03053283691406, 638.1630249023438)"/><path d="M 204.899994 266.299988 H 244.299995 V 267.999988 H 204.899994 V 266.299988 Z" class="st0" style="fill: rgb(49, 63, 91);" transform="matrix(1.3518213033676147, 0, 0, -1.3518213033676147, 232.03053283691406, 638.1630249023438)"/><path d="M 204.899994 275.700012 H 269.699997 V 277.400012 H 204.899994 V 275.700012 Z" class="st0" style="fill: rgb(49, 63, 91);" transform="matrix(1.3518213033676147, 0, 0, -1.3518213033676147, 232.03053283691406, 638.1630249023438)"/><g transform="matrix(1.3518213033676147, 0, 0, -1.3518213033676147, 232.0305400286061, 630.1630057923608)">
			<path class="st1" d="M272.1,216.9c-3.4-5.2-9.2-8.6-15.8-8.6c-6.4,0-12,3.2-15.4,8c-2.2-3.5-6.2-5.9-10.7-5.9&#10;&#9;&#9;&#9;&#9;c-2.4,0-4.7,0.7-6.6,1.9c-1.5-5.3-6.4-9.3-12.2-9.3c-0.7,0-1.4,0.1-2,0.2c-2.6-7.2-9.6-12.4-17.7-12.4c-8.2,0-15.1,5.2-17.7,12.4&#10;&#9;&#9;&#9;&#9;c-0.7-0.1-1.4-0.2-2.1-0.2c-6.2,0-11.3,4.4-12.4,10.2c-2.2-1.8-4.9-2.8-8-2.8c-5,0-9.3,2.9-11.3,7c-1.6-0.4-3.2-0.7-4.9-0.7&#10;&#9;&#9;&#9;&#9;c-10.4,0-18.9,8.5-18.9,18.9c0,0.9,0.1,1.7,0.2,2.5c0,0.2,0,0.4,0,0.6c0,8.7,4.8,15.8,10.7,15.8h137.3c0.7,0,1.4-0.1,2.1-0.3&#10;&#9;&#9;&#9;&#9;c1.1,0.2,2.2,0.3,3.4,0.3c10.4,0,18.9-8.5,18.9-18.9C288.8,225.9,281.5,217.9,272.1,216.9z" style="fill: rgb(255, 255, 255);"/>
			<path class="st0" d="M269.9,255.4c-1.1,0-2.2-0.1-3.3-0.3c-0.7,0.2-1.5,0.3-2.2,0.3H127.1c-6.4,0-11.6-7.5-11.6-16.7&#10;&#9;&#9;&#9;&#9;c0-0.1,0-0.3,0-0.4l0-0.2c-0.1-1-0.2-1.8-0.2-2.5c0-10.9,8.9-19.8,19.8-19.8c1.4,0,2.9,0.2,4.4,0.5c2.4-4.3,6.9-6.9,11.8-6.9&#10;&#9;&#9;&#9;&#9;c2.6,0,5.2,0.8,7.4,2.2c1.7-5.6,7-9.6,13-9.6c0.5,0,1,0,1.5,0.1c3-7.4,10.3-12.3,18.3-12.3c8,0,15.3,4.9,18.3,12.3&#10;&#9;&#9;&#9;&#9;c0.5-0.1,1-0.1,1.5-0.1c5.7,0,10.7,3.6,12.7,8.8c1.9-0.9,3.9-1.4,6.1-1.4c4.2,0,8.1,1.9,10.7,5.3c3.7-4.6,9.4-7.4,15.4-7.4&#10;&#9;&#9;&#9;&#9;c6.6,0,12.7,3.2,16.4,8.7c9.8,1.3,17.1,9.7,17.1,19.6C289.7,246.6,280.8,255.4,269.9,255.4z M266.5,253.3l0.2,0&#10;&#9;&#9;&#9;&#9;c1.1,0.2,2.2,0.3,3.2,0.3c9.9,0,18-8.1,18-18c0-9.2-6.9-16.8-15.9-17.8l-0.4,0l-0.2-0.4c-3.3-5.1-9-8.2-15.1-8.2&#10;&#9;&#9;&#9;&#9;c-5.8,0-11.3,2.9-14.7,7.6l-0.8,1.1l-0.7-1.2c-2.2-3.4-5.9-5.5-9.9-5.5c-2.1,0-4.3,0.6-6.1,1.7l-1,0.6l-0.3-1.2&#10;&#9;&#9;&#9;&#9;c-1.4-5.1-6-8.6-11.3-8.6c-0.6,0-1.2,0.1-1.9,0.2l-0.7,0.1l-0.3-0.7c-2.6-7.1-9.4-11.8-16.9-11.8c-7.5,0-14.3,4.7-16.9,11.8&#10;&#9;&#9;&#9;&#9;l-0.3,0.7l-0.8-0.1c-0.7-0.1-1.4-0.2-2-0.2c-5.6,0-10.4,4-11.5,9.5l-0.3,1.5l-1.2-1c-2.1-1.7-4.7-2.6-7.4-2.6&#10;&#9;&#9;&#9;&#9;c-4.5,0-8.5,2.5-10.5,6.5l-0.3,0.7l-0.7-0.2c-1.6-0.4-3.1-0.6-4.6-0.6c-9.9,0-18,8.1-18,18c0,0.7,0.1,1.5,0.2,2.4l0,0.1l0,0.3&#10;&#9;&#9;&#9;&#9;c0,0.1,0,0.2,0,0.3c0,8.2,4.4,14.8,9.8,14.8h137.3c0.6,0,1.3-0.1,1.9-0.3L266.5,253.3z" style="fill: rgb(49, 63, 91);"/>
		</g><g transform="matrix(1.3518211841583252, 0, 0, -1.3518211841583252, 315.85536722281995, 581.568889581423)">
			<path class="st1" d="M261.4,143.6c0-3-2.5-5.5-5.5-5.5c-0.2,0-0.4,0-0.6,0c-0.6-3.1-3.4-5.5-6.7-5.5c-1.5,0-2.8,0.5-4,1.3&#10;&#9;&#9;&#9;&#9;c-1.1-2.3-3.4-3.9-6.1-3.9c-3.8,0-6.8,3-6.8,6.8c0,0.4,0,0.9,0.1,1.3c-3,0.1-5.4,2.5-5.4,5.5c0,0.1,0,0.2,0,0.2&#10;&#9;&#9;&#9;&#9;c0,0.1,0,0.3,0,0.4c0,2.7,1.2,4.9,2.8,4.9h2.8c0,0,0,0,0,0c0,0,0,0,0,0h23.9c0,0,0,0,0,0c0,0,0,0,0,0h2.8c1.5,0,2.8-2.2,2.8-4.9&#10;&#9;&#9;&#9;&#9;c0-0.1,0-0.3,0-0.4C261.4,143.7,261.4,143.6,261.4,143.6z" style="fill: rgb(255, 255, 255);"/>
			<path class="st0" d="M258.7,150h-29.4c-2.1,0-3.7-2.5-3.7-5.8c0-0.2,0-0.3,0-0.5c0-0.1,0-0.1,0-0.2c0-3.2,2.2-5.8,5.3-6.3&#10;&#9;&#9;&#9;&#9;c0-0.2,0-0.3,0-0.5c0-4.3,3.5-7.7,7.7-7.7c2.6,0,5,1.3,6.4,3.5c1.1-0.6,2.4-0.9,3.6-0.9c3.4,0,6.4,2.3,7.4,5.5&#10;&#9;&#9;&#9;&#9;c3.5,0.1,6.3,2.9,6.3,6.4c0,0.1,0,0.1,0,0.2c0,0.1,0,0.3,0,0.4C262.3,147.5,260.7,150,258.7,150z M238.6,130.9&#10;&#9;&#9;&#9;&#9;c-3.2,0-5.9,2.6-5.9,5.9c0,0.4,0,0.7,0.1,1.1l0.2,1.1l-1.1,0c-2.5,0.1-4.5,2.1-4.5,4.6l0,0.2c0,0.2,0,0.3,0,0.4c0,2.3,1,4,1.8,4&#10;&#9;&#9;&#9;&#9;h29.4c0.9,0,1.8-1.7,1.8-4c0-0.1,0-0.2,0-0.4l0-0.1l0-0.1c0-2.6-2.1-4.7-4.6-4.7c-0.2,0-0.3,0-0.5,0l-0.8,0.1l-0.2-0.8&#10;&#9;&#9;&#9;&#9;c-0.5-2.8-3-4.8-5.8-4.8c-1.2,0-2.4,0.4-3.4,1.1l-0.9,0.6l-0.5-1C242.9,132.2,240.8,130.9,238.6,130.9z" style="fill: rgb(49, 63, 91);"/>
		</g><g transform="matrix(1.3518211841583252, 0, 0, -1.3518211841583252, 518.7357077989918, 592.5026054017355)">
			<path class="st1" d="M595.4,129.2c0-5-4-9-9-9c-0.3,0-0.6,0-1,0.1c-1-5.1-5.5-9-10.9-9c-2.4,0-4.6,0.8-6.5,2.1&#10;&#9;&#9;&#9;&#9;c-1.8-3.7-5.6-6.3-10-6.3c-6.1,0-11.1,5-11.1,11.1c0,0.7,0.1,1.4,0.2,2.1c-4.9,0.1-8.8,4.1-8.8,9c0,0.1,0,0.3,0,0.4&#10;&#9;&#9;&#9;&#9;c0,0.2,0,0.4,0,0.7c0,4.4,2,7.9,4.5,7.9h4.5c0,0,0,0,0,0c0,0,0,0,0,0h38.9c0,0,0,0,0,0c0,0,0,0,0,0h4.5c2.5,0,4.5-3.6,4.5-7.9&#10;&#9;&#9;&#9;&#9;c0-0.2,0-0.5,0-0.7C595.3,129.4,595.4,129.3,595.4,129.2z" style="fill: rgb(255, 255, 255);"/>
			<path class="st0" d="M590.9,139.1h-48c-3,0-5.4-3.9-5.4-8.9c0-0.2,0-0.5,0-0.7l0-0.1c0-0.1,0-0.2,0-0.3c0-5.1,3.7-9.2,8.6-9.8&#10;&#9;&#9;&#9;&#9;c0-0.4-0.1-0.9-0.1-1.3c0-6.6,5.4-12,12-12c4.2,0,8.2,2.3,10.3,5.9c1.9-1.1,3.9-1.7,6.1-1.7c5.5,0,10.3,3.7,11.6,9&#10;&#9;&#9;&#9;&#9;c5.6-0.1,10.2,4.4,10.2,9.9c0,0.1,0,0.2,0,0.3l0,0.1c0,0.2,0,0.4,0,0.6C596.3,135.2,593.9,139.1,590.9,139.1z M558.1,107.9&#10;&#9;&#9;&#9;&#9;c-5.6,0-10.2,4.6-10.2,10.2c0,0.6,0.1,1.3,0.2,1.9l0.2,1.1l-1.1,0c-4.4,0.1-7.9,3.7-7.9,8.1c0,0.1,0,0.1,0,0.2l0,0.2&#10;&#9;&#9;&#9;&#9;c0,0.3,0,0.5,0,0.7c0,4.1,1.9,7,3.6,7h48c1.7,0,3.6-2.9,3.6-7c0-0.2,0-0.4,0-0.6l0-0.2c0-0.1,0-0.1,0-0.2c0-4.5-3.6-8.1-8.1-8.1&#10;&#9;&#9;&#9;&#9;c-0.3,0-0.6,0-0.9,0l-0.8,0.1l-0.2-0.8c-0.9-4.8-5.1-8.3-10-8.3c-2.1,0-4.2,0.7-5.9,1.9l-0.9,0.6l-0.5-1&#10;&#9;&#9;&#9;&#9;C565.5,110.1,562,107.9,558.1,107.9z" style="fill: rgb(49, 63, 91);"/>
		</g><g transform="matrix(1.3518211841583252, 0, 0, -1.3518211841583252, 518.7357077989918, 592.5026054017355)">
			<path class="st1" d="M602.8,140.7c0-2.4-2-4.4-4.4-4.4c-0.2,0-0.3,0-0.5,0c-0.5-2.5-2.7-4.4-5.3-4.4c-1.2,0-2.3,0.4-3.2,1&#10;&#9;&#9;&#9;&#9;c-0.9-1.8-2.7-3.1-4.9-3.1c-3,0-5.4,2.4-5.4,5.4c0,0.4,0,0.7,0.1,1c-2.4,0.1-4.3,2-4.3,4.4c0,0.1,0,0.1,0,0.2c0,0.1,0,0.2,0,0.3&#10;&#9;&#9;&#9;&#9;c0,2.2,1,3.9,2.2,3.9h2.2c0,0,0,0,0,0s0,0,0,0h19.1c0,0,0,0,0,0h0h2.2c1.2,0,2.2-1.7,2.2-3.9c0-0.1,0-0.2,0-0.3&#10;&#9;&#9;&#9;&#9;C602.8,140.8,602.8,140.7,602.8,140.7z" style="fill: rgb(255, 255, 255);"/>
			<path class="st0" d="M600.6,146H577c-1.8,0-3.1-2.1-3.1-4.8c0-0.1,0-0.3,0-0.4c0,0,0-0.1,0-0.1c0-2.6,1.8-4.7,4.2-5.2&#10;&#9;&#9;&#9;&#9;c0-0.1,0-0.2,0-0.2c0-3.5,2.9-6.4,6.4-6.4c2.1,0,4,1.1,5.2,2.7c0.9-0.4,1.8-0.7,2.8-0.7c2.8,0,5.2,1.8,6,4.4&#10;&#9;&#9;&#9;&#9;c2.8,0.1,5.1,2.5,5.1,5.3c0,0.1,0,0.1,0,0.2c0,0.1,0,0.2,0,0.3C603.7,143.9,602.3,146,600.6,146z M584.5,130.7&#10;&#9;&#9;&#9;&#9;c-2.5,0-4.5,2-4.5,4.5c0,0.3,0,0.6,0.1,0.9l0.2,1.1l-1.1,0c-1.9,0.1-3.4,1.6-3.4,3.5l0,0.1c0,0.2,0,0.3,0,0.4c0,1.8,0.8,3,1.3,3&#10;&#9;&#9;&#9;&#9;h23.5c0.5,0,1.3-1.2,1.3-3c0-0.1,0-0.2,0-0.3l0-0.1l0-0.1c0-2-1.6-3.6-3.5-3.6c-0.1,0-0.2,0-0.4,0l-0.8,0.1l-0.2-0.8&#10;&#9;&#9;&#9;&#9;c-0.4-2.1-2.3-3.7-4.4-3.7c-0.9,0-1.9,0.3-2.6,0.8l-0.9,0.6l-0.5-1C587.8,131.7,586.2,130.7,584.5,130.7z" style="fill: rgb(49, 63, 91);"/>
		</g><g transform="matrix(1.3518211841583252, 0, 0, -1.3518211841583252, 535.7436728868825, 675.112590753298)">
			<path class="st1" d="M631.7,258.9c-3.4-5.2-9.2-8.6-15.8-8.6c-6.4,0-12,3.2-15.4,8c-2.2-3.5-6.2-5.9-10.7-5.9&#10;&#9;&#9;&#9;&#9;c-2.4,0-4.7,0.7-6.6,1.9c-1.5-5.3-6.4-9.3-12.2-9.3c-0.7,0-1.4,0.1-2,0.2c-2.6-7.2-9.6-12.4-17.7-12.4c-8.2,0-15.1,5.2-17.7,12.4&#10;&#9;&#9;&#9;&#9;c-0.7-0.1-1.4-0.2-2.1-0.2c-6.2,0-11.3,4.4-12.4,10.2c-2.2-1.8-4.9-2.8-8-2.8c-5,0-9.3,2.9-11.3,7c-1.6-0.4-3.2-0.7-4.9-0.7&#10;&#9;&#9;&#9;&#9;c-10.4,0-18.9,8.5-18.9,18.9c0,0.9,0.1,1.7,0.2,2.5c0,0.2,0,0.4,0,0.6c0,8.7,4.8,15.8,10.7,15.8h137.3c0.7,0,1.4-0.1,2.1-0.3&#10;&#9;&#9;&#9;&#9;c1.1,0.2,2.2,0.3,3.4,0.3c10.4,0,18.9-8.5,18.9-18.9C648.5,268,641.1,260,631.7,258.9z" style="fill: rgb(255, 255, 255);"/>
			<path class="st0" d="M629.6,297.5c-1.1,0-2.2-0.1-3.3-0.3c-0.7,0.2-1.5,0.3-2.2,0.3H486.8c-6.4,0-11.6-7.5-11.6-16.7&#10;&#9;&#9;&#9;&#9;c0-0.1,0-0.3,0-0.4l0-0.2c-0.1-1-0.2-1.8-0.2-2.5c0-10.9,8.9-19.8,19.8-19.8c1.4,0,2.9,0.2,4.4,0.5c2.4-4.3,6.9-6.9,11.8-6.9&#10;&#9;&#9;&#9;&#9;c2.6,0,5.2,0.8,7.4,2.2c1.7-5.6,7-9.6,13-9.6c0.5,0,1,0,1.5,0.1c3-7.4,10.3-12.3,18.3-12.3c8,0,15.3,4.9,18.3,12.3&#10;&#9;&#9;&#9;&#9;c0.5-0.1,1-0.1,1.5-0.1c5.7,0,10.8,3.6,12.7,8.8c1.9-0.9,4-1.4,6.1-1.4c4.2,0,8.1,1.9,10.7,5.3c3.7-4.6,9.4-7.4,15.4-7.4&#10;&#9;&#9;&#9;&#9;c6.6,0,12.7,3.2,16.4,8.7c9.8,1.3,17.1,9.7,17.1,19.6C649.4,288.6,640.5,297.5,629.6,297.5z M626.2,295.3l0.2,0&#10;&#9;&#9;&#9;&#9;c1.1,0.2,2.2,0.3,3.2,0.3c9.9,0,18-8.1,18-18c0-9.2-6.9-16.8-15.9-17.8l-0.4,0l-0.2-0.4c-3.3-5.1-9-8.2-15.1-8.2&#10;&#9;&#9;&#9;&#9;c-5.8,0-11.3,2.9-14.7,7.6l-0.8,1.1l-0.7-1.2c-2.2-3.4-5.9-5.5-9.9-5.5c-2.1,0-4.3,0.6-6.1,1.7l-1,0.6l-0.3-1.2&#10;&#9;&#9;&#9;&#9;c-1.4-5.1-6-8.6-11.3-8.6c-0.6,0-1.2,0.1-1.9,0.2l-0.7,0.1l-0.3-0.7c-2.6-7.1-9.4-11.8-16.9-11.8c-7.5,0-14.3,4.7-16.9,11.8&#10;&#9;&#9;&#9;&#9;l-0.3,0.7l-0.8-0.1c-0.7-0.1-1.4-0.2-2-0.2c-5.6,0-10.4,4-11.5,9.5l-0.3,1.5l-1.2-1c-2.1-1.7-4.7-2.6-7.4-2.6&#10;&#9;&#9;&#9;&#9;c-4.5,0-8.5,2.5-10.5,6.5l-0.3,0.7l-0.7-0.2c-1.6-0.4-3.1-0.6-4.6-0.6c-9.9,0-18,8.1-18,18c0,0.7,0.1,1.5,0.2,2.4l0,0.1l0,0.3&#10;&#9;&#9;&#9;&#9;c0,0.1,0,0.2,0,0.3c0,8.2,4.4,14.8,9.8,14.8h137.3c0.6,0,1.3-0.1,1.9-0.3L626.2,295.3z" style="fill: rgb(49, 63, 91);"/>
		</g><g transform="matrix(1.3518211841583252, 0, 0, -1.3518211841583252, 535.7436728868825, 675.112590753298)">
			<path class="st1" d="M612.1,285.3c-2.4-3.6-6.5-6.1-11.1-6.1c-4.5,0-8.4,2.2-10.8,5.6c-1.6-2.5-4.3-4.1-7.5-4.1&#10;&#9;&#9;&#9;&#9;c-1.7,0-3.3,0.5-4.6,1.3c-1-3.8-4.5-6.5-8.5-6.5c-0.5,0-1,0-1.4,0.1c-1.9-5.1-6.7-8.7-12.4-8.7c-5.7,0-10.6,3.6-12.4,8.7&#10;&#9;&#9;&#9;&#9;c-0.5-0.1-1-0.1-1.5-0.1c-4.3,0-7.9,3.1-8.7,7.2c-1.5-1.2-3.5-2-5.6-2c-3.5,0-6.5,2-7.9,4.9c-1.1-0.3-2.2-0.5-3.4-0.5&#10;&#9;&#9;&#9;&#9;c-7.3,0-13.3,5.9-13.3,13.3c0,0.6,0.1,1.2,0.1,1.8c0,0.1,0,0.3,0,0.4c0,6.1,3.4,11.1,7.5,11.1h96.4c0.5,0,1-0.1,1.5-0.2&#10;&#9;&#9;&#9;&#9;c0.8,0.1,1.6,0.2,2.4,0.2c7.3,0,13.3-5.9,13.3-13.3C623.9,291.6,618.8,286,612.1,285.3z" style="fill: rgb(255, 255, 255);"/>
			<path class="st0" d="M610.6,312.6c-0.8,0-1.5-0.1-2.3-0.2c-0.5,0.1-1,0.2-1.5,0.2h-96.4c-4.6,0-8.4-5.4-8.4-12c0-0.1,0-0.2,0-0.3&#10;&#9;&#9;&#9;&#9;l0-0.1c-0.1-0.7-0.1-1.2-0.1-1.8c0-7.8,6.4-14.2,14.2-14.2c1,0,2,0.1,3,0.3c1.8-3,4.9-4.8,8.4-4.8c1.8,0,3.5,0.5,5,1.4&#10;&#9;&#9;&#9;&#9;c1.3-3.9,5-6.6,9.3-6.6c0.3,0,0.6,0,0.9,0c2.2-5.2,7.4-8.6,13-8.6c5.7,0,10.8,3.4,13,8.6c0.3,0,0.6,0,0.8,0c4,0,7.6,2.5,9.1,6.1&#10;&#9;&#9;&#9;&#9;c1.3-0.6,2.7-0.9,4.1-0.9c2.9,0,5.7,1.3,7.5,3.5c2.7-3.2,6.6-5,10.8-5c4.7,0,9,2.3,11.7,6.1c7,1,12.2,6.9,12.2,14&#10;&#9;&#9;&#9;&#9;C624.8,306.3,618.5,312.6,610.6,312.6z M608.2,310.6l0.2,0c0.8,0.1,1.5,0.2,2.2,0.2c6.8,0,12.3-5.5,12.3-12.3&#10;&#9;&#9;&#9;&#9;c0-6.3-4.7-11.6-11-12.3l-0.4,0l-0.2-0.4c-2.3-3.5-6.2-5.6-10.4-5.6c-4,0-7.8,2-10.1,5.2l-0.8,1.1l-0.7-1.2&#10;&#9;&#9;&#9;&#9;c-1.5-2.3-4-3.7-6.7-3.7c-1.5,0-2.9,0.4-4.1,1.2l-1,0.6l-0.3-1.2c-0.9-3.4-4.1-5.8-7.7-5.8c-0.4,0-0.8,0-1.3,0.1l-0.7,0.1&#10;&#9;&#9;&#9;&#9;l-0.3-0.7c-1.8-4.9-6.4-8.1-11.6-8.1c-5.2,0-9.8,3.3-11.6,8.1l-0.3,0.7l-0.8-0.1c-0.5-0.1-0.9-0.1-1.3-0.1&#10;&#9;&#9;&#9;&#9;c-3.8,0-7.1,2.7-7.8,6.4l-0.3,1.5l-1.2-1c-1.4-1.2-3.2-1.8-5-1.8c-3,0-5.8,1.7-7.1,4.4l-0.3,0.7l-0.7-0.2&#10;&#9;&#9;&#9;&#9;c-1.1-0.3-2.1-0.4-3.2-0.4c-6.8,0-12.3,5.5-12.3,12.3c0,0.5,0,1,0.1,1.6l0,0.1l0,0.5c0,5.6,2.9,10.1,6.6,10.1h96.4&#10;&#9;&#9;&#9;&#9;c0.4,0,0.8-0.1,1.2-0.2L608.2,310.6z" style="fill: rgb(49, 63, 91);"/>
		</g><g transform="matrix(1.3518211841583252, 0, 0, -1.3518211841583252, 535.7436728868825, 675.112590753298)">
			<path class="st1" d="M533.6,300.8c-2.4-3.6-6.5-6.1-11.1-6.1c-4.5,0-8.4,2.2-10.8,5.6c-1.6-2.5-4.3-4.1-7.5-4.1&#10;&#9;&#9;&#9;&#9;c-1.7,0-3.3,0.5-4.6,1.3c-1-3.8-4.5-6.5-8.5-6.5c-0.5,0-1,0-1.4,0.1c-1.9-5.1-6.7-8.7-12.4-8.7c-5.7,0-10.6,3.6-12.4,8.7&#10;&#9;&#9;&#9;&#9;c-0.5-0.1-1-0.1-1.5-0.1c-3.5,0-6.6,2.1-8,5c-2.4-2.8-6-4.6-10.1-4.6c-4.5,0-8.4,2.2-10.8,5.6c-1.6-2.5-4.3-4.1-7.5-4.1&#10;&#9;&#9;&#9;&#9;c-1.7,0-3.3,0.5-4.6,1.3c-1-3.8-4.5-6.5-8.5-6.5c-0.5,0-1,0-1.4,0.1c-1.9-5.1-6.7-8.7-12.4-8.7c-5.7,0-10.6,3.6-12.4,8.7&#10;&#9;&#9;&#9;&#9;c-0.5-0.1-1-0.1-1.5-0.1c-4.3,0-7.9,3.1-8.7,7.2c-1.5-1.2-3.5-2-5.6-2c-3.5,0-6.5,2-7.9,4.9c-1.1-0.3-2.2-0.5-3.4-0.5&#10;&#9;&#9;&#9;&#9;c-7.3,0-13.3,5.9-13.3,13.3c0,0.6,0.1,1.2,0.1,1.8c0,0.1,0,0.3,0,0.4c0,6.1,3.4,11.1,7.5,11.1c0,0,176.8,0.3,177.6,0.3&#10;&#9;&#9;&#9;&#9;c7.3,0,13.3-2.9,13.3-10.3C545.3,307.2,540.2,301.6,533.6,300.8z" style="fill: rgb(255, 255, 255);"/>
			<path class="st0" d="M532.1,325.2c-0.8,0-175.9-0.3-177.6-0.3c-4.6,0-8.4-5.4-8.4-12c0-0.1,0-0.2,0-0.3l0-0.1&#10;&#9;&#9;&#9;&#9;c-0.1-0.7-0.1-1.2-0.1-1.8c0-7.8,6.4-14.2,14.2-14.2c1,0,2,0.1,3,0.3c1.8-3,4.9-4.8,8.4-4.8c1.8,0,3.5,0.5,5,1.4&#10;&#9;&#9;&#9;&#9;c1.3-3.9,5-6.6,9.3-6.6c0.3,0,0.6,0,0.9,0c2.2-5.2,7.4-8.6,13-8.6c5.7,0,10.8,3.4,13,8.6c0.3,0,0.6,0,0.8,0c4,0,7.6,2.5,9.1,6.1&#10;&#9;&#9;&#9;&#9;c1.3-0.6,2.7-0.9,4.1-0.9c2.9,0,5.7,1.3,7.5,3.5c2.7-3.2,6.6-5,10.8-5c3.7,0,7.2,1.5,9.9,4c1.8-2.7,4.9-4.4,8.2-4.4&#10;&#9;&#9;&#9;&#9;c0.3,0,0.6,0,0.9,0c2.2-5.2,7.4-8.6,13-8.6c5.7,0,10.8,3.4,13,8.6c0.3,0,0.6,0,0.8,0c4,0,7.6,2.5,9.1,6.1&#10;&#9;&#9;&#9;&#9;c1.3-0.6,2.7-0.9,4.1-0.9c2.9,0,5.7,1.3,7.5,3.5c2.7-3.2,6.6-5,10.8-5c4.7,0,9,2.3,11.7,6.1c7,1,12.2,6.9,12.2,14&#10;&#9;&#9;&#9;&#9;C546.3,321,541,325.2,532.1,325.2z M360.1,298.3c-6.8,0-12.3,5.5-12.3,12.3c0,0.5,0,1,0.1,1.6l0,0.1l0,0.5c0,5.6,3,10.1,6.6,10.1&#10;&#9;&#9;&#9;&#9;c1.8,0,176.8,0.3,177.6,0.3c4.6,0,12.3-1.2,12.3-9.3c0-6.3-4.7-11.6-11-12.3l-0.4,0l-0.2-0.4c-2.3-3.5-6.2-5.6-10.4-5.6&#10;&#9;&#9;&#9;&#9;c-4,0-7.8,2-10.1,5.2l-0.8,1.1l-0.7-1.2c-1.5-2.3-4-3.7-6.7-3.7c-1.5,0-2.9,0.4-4.1,1.2l-1,0.6l-0.3-1.2&#10;&#9;&#9;&#9;&#9;c-0.9-3.4-4.1-5.8-7.7-5.8c-0.4,0-0.8,0-1.3,0.1l-0.7,0.1l-0.3-0.7c-1.8-4.9-6.4-8.1-11.6-8.1c-5.2,0-9.8,3.3-11.6,8.1l-0.3,0.7&#10;&#9;&#9;&#9;&#9;l-0.8-0.1c-0.5-0.1-0.9-0.1-1.3-0.1c-3,0-5.9,1.8-7.2,4.5l-0.6,1.3l-0.9-1.1c-2.4-2.8-5.8-4.3-9.4-4.3c-4,0-7.8,2-10.1,5.2&#10;&#9;&#9;&#9;&#9;l-0.8,1.1l-0.7-1.2c-1.5-2.3-4-3.7-6.7-3.7c-1.5,0-2.9,0.4-4.1,1.2l-1,0.6l-0.3-1.2c-0.9-3.4-4.1-5.8-7.7-5.8&#10;&#9;&#9;&#9;&#9;c-0.4,0-0.8,0-1.3,0.1l-0.7,0.1l-0.3-0.7c-1.8-4.9-6.4-8.1-11.6-8.1c-5.2,0-9.8,3.3-11.6,8.1l-0.3,0.7l-0.8-0.1&#10;&#9;&#9;&#9;&#9;c-0.5-0.1-0.9-0.1-1.3-0.1c-3.8,0-7.1,2.7-7.8,6.4l-0.3,1.5l-1.2-1c-1.4-1.2-3.2-1.8-5-1.8c-3,0-5.8,1.7-7.1,4.4l-0.3,0.7&#10;&#9;&#9;&#9;&#9;l-0.7-0.2C362.2,298.4,361.1,298.3,360.1,298.3z" style="fill: rgb(49, 63, 91);"/>
		</g></svg>