<?xml version="1.0" encoding="utf-8"?>
<svg id="master-artboard" viewBox="0 0 1400 980" version="1.1" xmlns="http://www.w3.org/2000/svg" x="0px" y="0px" enable-background="new 0 0 1400 980" width="1400px" height="980px"><rect id="ee-background" x="0" y="0" width="1400" height="980" style="fill: rgb(0, 0, 0); fill-opacity: 0; pointer-events: none;"/>
<path d="M 343 124.5999984741211 L 344.8999938964844 128.39999389648438 L 349.1000061035156 129 L 346 132 L 346.79998779296875 136.1999969482422 L 343 134.1999969482422 L 339.20001220703125 136.1999969482422 L 340 132 L 336.8999938964844 129 L 341.1000061035156 128.39999389648438 Z" fill="#FFFFFF" transform="matrix(1, 0, 0, 1, 0, 0)"/><path d="M 372.70001220703125 51.099998474121094 L 375.29998779296875 56.400001525878906 L 381.1000061035156 57.29999923706055 L 376.8999938964844 61.400001525878906 L 377.8999938964844 67.19999694824219 L 372.70001220703125 64.4000015258789 L 367.5 67.19999694824219 L 368.5 61.400001525878906 L 364.29998779296875 57.29999923706055 L 370.1000061035156 56.400001525878906 Z" fill="#FFFFFF" transform="matrix(1, 0, 0, 1, 0, 0)"/><path d="M 33 139.1999969482422 L 36.20000076293945 145.60000610351562 L 43.29999923706055 146.6999969482422 L 38.099998474121094 151.6999969482422 L 39.29999923706055 158.6999969482422 L 33 155.39999389648438 L 26.700000762939453 158.6999969482422 L 27.899999618530273 151.6999969482422 L 22.700000762939453 146.6999969482422 L 29.799999237060547 145.60000610351562 Z" fill="#FFFFFF" transform="matrix(1, 0, 0, 1, 0, 0)"/><path d="M 847.5999755859375 81.30000305175781 L 850.5999755859375 87.4000015258789 L 857.2999877929688 88.30000305175781 L 852.5 93 L 853.5999755859375 99.69999694824219 L 847.5999755859375 96.5 L 841.7000122070312 99.69999694824219 L 842.7999877929688 93 L 838 88.30000305175781 L 844.7000122070312 87.4000015258789 Z" fill="#FFFFFF" transform="matrix(1, 0, 0, 1, 337.90309931605543, 75.48899027273579)"/><path d="M 1317.4000244140625 53.20000076293945 L 1319.199951171875 56.70000076293945 L 1323.0999755859375 57.29999923706055 L 1320.300048828125 60.099998474121094 L 1320.9000244140625 64 L 1317.4000244140625 62.20000076293945 L 1313.9000244140625 64 L 1314.5 60.099998474121094 L 1311.699951171875 57.29999923706055 L 1315.5999755859375 56.70000076293945 Z" fill="#FFFFFF" transform="matrix(1, 0, 0, 1, -367.5594883517731, 26.0616752132064)"/><path d="M 576.5999755859375 569.7000122070312 L 578.2999877929688 573.2000122070312 L 582.2000122070312 573.7999877929688 L 579.4000244140625 576.5 L 580 580.2999877929688 L 576.5999755859375 578.5 L 573.2000122070312 580.2999877929688 L 573.7999877929688 576.5 L 571 573.7999877929688 L 574.9000244140625 573.2000122070312 Z" fill="#FFFFFF" transform="matrix(1, 0, 0, 1, 541.0044302879398, -483.48900912776026)"/><path d="M 295 482.79998779296875 L 295 482.79998779296875 L 295 482.79998779296875 L 295 482.79998779296875 L 295 482.79998779296875 L 295 482.79998779296875 L 295 482.79998779296875 L 295 482.79998779296875 L 295 482.79998779296875 L 295 482.79998779296875 Z" fill="#FFFFFF" transform="matrix(1, 0, 0, 1, 0, 0)"/><path d="M 981 538.2000122070312 L 982.2000122070312 540.5999755859375 L 984.7999877929688 541 L 982.9000244140625 542.7999877929688 L 983.4000244140625 545.5 L 981 544.2000122070312 L 978.5999755859375 545.5 L 979.0999755859375 542.7999877929688 L 977.2000122070312 541 L 979.7999877929688 540.5999755859375 Z" fill="#FFFFFF" transform="matrix(1, 0, 0, 1, 204.89868788314, -515.8414335303612)"/><path d="M 1187 408 L 1188.199951171875 410.29998779296875 L 1190.800048828125 410.70001220703125 L 1188.9000244140625 412.6000061035156 L 1189.4000244140625 415.20001220703125 L 1187 414 L 1184.5999755859375 415.20001220703125 L 1185.0999755859375 412.6000061035156 L 1183.199951171875 410.70001220703125 L 1185.800048828125 410.29998779296875 Z" fill="#FFFFFF" transform="matrix(1, 0, 0, 1, -919.3480601072465, -367.5594883517731)"/>
<path d="M 343 124.5999984741211 L 344.8999938964844 128.39999389648438 L 349.1000061035156 129 L 346 132 L 346.79998779296875 136.1999969482422 L 343 134.1999969482422 L 339.20001220703125 136.1999969482422 L 340 132 L 336.8999938964844 129 L 341.1000061035156 128.39999389648438 Z" fill="#FFFFFF" transform="matrix(1, 0, 0, 1, 738.7797855587532, -117.14889913787113)"/><path d="M 1187 408 L 1188.199951171875 410.29998779296875 L 1190.800048828125 410.70001220703125 L 1188.9000244140625 412.6000061035156 L 1189.4000244140625 415.20001220703125 L 1187 414 L 1184.5999755859375 415.20001220703125 L 1185.0999755859375 412.6000061035156 L 1183.199951171875 410.70001220703125 L 1185.800048828125 410.29998779296875 Z" fill="#FFFFFF" transform="matrix(1, 0, 0, 1, -987.72244071061, -399.24756970937034)"/><path d="M 372.70001220703125 51.099998474121094 L 375.29998779296875 56.400001525878906 L 381.1000061035156 57.29999923706055 L 376.8999938964844 61.400001525878906 L 377.8999938964844 67.19999694824219 L 372.70001220703125 64.4000015258789 L 367.5 67.19999694824219 L 368.5 61.400001525878906 L 364.29998779296875 57.29999923706055 L 370.1000061035156 56.400001525878906 Z" fill="#FFFFFF" transform="matrix(1, 0, 0, 1, -189.5986656666538, -7.255729223579806)"/><path d="M 576.5999755859375 569.7000122070312 L 578.2999877929688 573.2000122070312 L 582.2000122070312 573.7999877929688 L 579.4000244140625 576.5 L 580 580.2999877929688 L 576.5999755859375 578.5 L 573.2000122070312 580.2999877929688 L 573.7999877929688 576.5 L 571 573.7999877929688 L 574.9000244140625 573.2000122070312 Z" fill="#FFFFFF" transform="matrix(1, 0, 0, 1, 469.2326310443956, -453.00880817248316)"/><path d="M 576.5999755859375 569.7000122070312 L 578.2999877929688 573.2000122070312 L 582.2000122070312 573.7999877929688 L 579.4000244140625 576.5 L 580 580.2999877929688 L 576.5999755859375 578.5 L 573.2000122070312 580.2999877929688 L 573.7999877929688 576.5 L 571 573.7999877929688 L 574.9000244140625 573.2000122070312 Z" fill="#FFFFFF" transform="matrix(1, 0, 0, 1, 384.4397277832031, -547.8502197265625)"/><path d="M 1187 408 L 1188.199951171875 410.29998779296875 L 1190.800048828125 410.70001220703125 L 1188.9000244140625 412.6000061035156 L 1189.4000244140625 415.20001220703125 L 1187 414 L 1184.5999755859375 415.20001220703125 L 1185.0999755859375 412.6000061035156 L 1183.199951171875 410.70001220703125 L 1185.800048828125 410.29998779296875 Z" fill="#FFFFFF" transform="matrix(1, 0, 0, 1, -1109.0660400390625, -381.56475830078125)"/><path d="M 1187 408 L 1188.199951171875 410.29998779296875 L 1190.800048828125 410.70001220703125 L 1188.9000244140625 412.6000061035156 L 1189.4000244140625 415.20001220703125 L 1187 414 L 1184.5999755859375 415.20001220703125 L 1185.0999755859375 412.6000061035156 L 1183.199951171875 410.70001220703125 L 1185.800048828125 410.29998779296875 Z" fill="#FFFFFF" transform="matrix(1, 0, 0, 1, -950.2863159179688, -305.46343994140625)"/><g transform="matrix(0.029162234974599528, 0, 0, 0.029162234974599528, 1176.1581034000283, 89.0858404308716)"><g id="g-1" transform="matrix(1, 0, 0, 1, 0, 0)">
	<g id="g-2">
		<path class="st0" d="M652,46c27.6,0,50,22.4,50,50s-22.4,50-50,50s-50-22.4-50-50S624.4,46,652,46z" style="fill: rgb(255, 255, 255);"/>
	</g>
</g></g><g transform="matrix(0.02916223928332329, 0, 0, 0.02916223928332329, 1221.832053257668, 94.9273031304318)"><g id="g-3" transform="matrix(1, 0, 0, 1, 0, 0)">
	<g id="g-4">
		<path class="st0" d="M652,46c27.6,0,50,22.4,50,50s-22.4,50-50,50s-50-22.4-50-50S624.4,46,652,46z" style="fill: rgb(255, 255, 255);"/>
	</g>
</g></g><path d="M 576.5999755859375 569.7000122070312 L 578.2999877929688 573.2000122070312 L 582.2000122070312 573.7999877929688 L 579.4000244140625 576.5 L 580 580.2999877929688 L 576.5999755859375 578.5 L 573.2000122070312 580.2999877929688 L 573.7999877929688 576.5 L 571 573.7999877929688 L 574.9000244140625 573.2000122070312 Z" fill="#FFFFFF" transform="matrix(1, 0, 0, 1, 690.3075746783777, -525.8017500463721)"/><g transform="matrix(0.02916224487125874, 0, 0, 0.02916224487125874, 1233.5149060241415, 147.05064992592455)"><g id="g-7" transform="matrix(1, 0, 0, 1, 0, 0)">
	<g id="g-8">
		<path class="st0" d="M652,46c27.6,0,50,22.4,50,50s-22.4,50-50,50s-50-22.4-50-50S624.4,46,652,46z" style="fill: rgb(255, 255, 255);"/>
	</g>
</g></g><g transform="matrix(0.02916224487125874, 0, 0, 0.02916224487125874, 190.14921904025755, 82.34580112072246)"><g id="g-9" transform="matrix(1, 0, 0, 1, 0, 0)">
	<g id="g-10">
		<path class="st0" d="M652,46c27.6,0,50,22.4,50,50s-22.4,50-50,50s-50-22.4-50-50S624.4,46,652,46z" style="fill: rgb(255, 255, 255);"/>
	</g>
</g></g><g transform="matrix(0.02916224487125874, 0, 0, 0.02916224487125874, 61.63819988548107, 61.676196641282885)"><g id="g-11" transform="matrix(1, 0, 0, 1, 0, 0)">
	<g id="g-12">
		<path class="st0" d="M652,46c27.6,0,50,22.4,50,50s-22.4,50-50,50s-50-22.4-50-50S624.4,46,652,46z" style="fill: rgb(255, 255, 255);"/>
	</g>
</g></g><g transform="matrix(0.02916224487125874, 0, 0, 0.02916224487125874, 111.96419340063835, 36.51319988370429)"><g id="g-13" transform="matrix(1, 0, 0, 1, 0, 0)">
	<g id="g-14">
		<path class="st0" d="M652,46c27.6,0,50,22.4,50,50s-22.4,50-50,50s-50-22.4-50-50S624.4,46,652,46z" style="fill: rgb(255, 255, 255);"/>
	</g>
</g></g><g transform="matrix(0.02916224487125874, 0, 0, 0.02916224487125874, 132.63379788007796, 125.48236699085719)"><g id="g-15" transform="matrix(1, 0, 0, 1, 0, 0)">
	<g id="g-16">
		<path class="st0" d="M652,46c27.6,0,50,22.4,50,50s-22.4,50-50,50s-50-22.4-50-50S624.4,46,652,46z" style="fill: rgb(255, 255, 255);"/>
	</g>
</g></g><g transform="matrix(0.02916224487125874, 0, 0, 0.02916224487125874, 313.268167461267, 71.56165965318877)"><g id="g-17" transform="matrix(1, 0, 0, 1, 0, 0)">
	<g id="g-18">
		<path class="st0" d="M652,46c27.6,0,50,22.4,50,50s-22.4,50-50,50s-50-22.4-50-50S624.4,46,652,46z" style="fill: rgb(255, 255, 255);"/>
	</g>
</g></g><g transform="matrix(0.02916224487125874, 0, 0, 0.02916224487125874, 288.1051707036886, 101.21804868890639)"><g id="g-19" transform="matrix(1, 0, 0, 1, 0, 0)">
	<g id="g-20">
		<path class="st0" d="M652,46c27.6,0,50,22.4,50,50s-22.4,50-50,50s-50-22.4-50-50S624.4,46,652,46z" style="fill: rgb(255, 255, 255);"/>
	</g>
</g></g><g transform="matrix(0.02916224487125874, 0, 0, 0.02916224487125874, 397.74394229028076, 60.77751818565508)"><g id="g-21" transform="matrix(1, 0, 0, 1, 0, 0)">
	<g id="g-22">
		<path class="st0" d="M652,46c27.6,0,50,22.4,50,50s-22.4,50-50,50s-50-22.4-50-50S624.4,46,652,46z" style="fill: rgb(255, 255, 255);"/>
	</g>
</g></g><g transform="matrix(0.02916224487125874, 0, 0, 0.02916224487125874, 485.814430941806, 117.39426089020692)"><g id="g-23" transform="matrix(1, 0, 0, 1, 0, 0)">
	<g id="g-24">
		<path class="st0" d="M652,46c27.6,0,50,22.4,50,50s-22.4,50-50,50s-50-22.4-50-50S624.4,46,652,46z" style="fill: rgb(255, 255, 255);"/>
	</g>
</g></g><g transform="matrix(0.02916224487125874, 0, 0, 0.02916224487125874, 917.1800896431535, 61.676196641282885)"><g id="g-25" transform="matrix(1, 0, 0, 1, 0, 0)">
	<g id="g-26">
		<path class="st0" d="M652,46c27.6,0,50,22.4,50,50s-22.4,50-50,50s-50-22.4-50-50S624.4,46,652,46z" style="fill: rgb(255, 255, 255);"/>
	</g>
</g></g><g transform="matrix(0.02916224487125874, 0, 0, 0.02916224487125874, 1235.312262935397, 23.03302304928718)"><g id="g-27" transform="matrix(1, 0, 0, 1, 0, 0)">
	<g id="g-28">
		<path class="st0" d="M652,46c27.6,0,50,22.4,50,50s-22.4,50-50,50s-50-22.4-50-50S624.4,46,652,46z" style="fill: rgb(255, 255, 255);"/>
	</g>
</g></g><g transform="matrix(0.02916224487125874, 0, 0, 0.02916224487125874, 1335.9642499657114, 76.0550519313278)"><g id="g-29" transform="matrix(1, 0, 0, 1, 0, 0)">
	<g id="g-30">
		<path class="st0" d="M652,46c27.6,0,50,22.4,50,50s-22.4,50-50,50s-50-22.4-50-50S624.4,46,652,46z" style="fill: rgb(255, 255, 255);"/>
	</g>
</g></g><g transform="matrix(0.02916224487125874, 0, 0, 0.02916224487125874, 1299.1184332849714, 103.91408405578981)"><g id="g-31" transform="matrix(1, 0, 0, 1, 0, 0)">
	<g id="g-32">
		<path class="st0" d="M652,46c27.6,0,50,22.4,50,50s-22.4,50-50,50s-50-22.4-50-50S624.4,46,652,46z" style="fill: rgb(255, 255, 255);"/>
	</g>
</g></g><g transform="matrix(0.02916224487125874, 0, 0, 0.02916224487125874, 995.3651152827726, 18.539630771148154)"><g id="g-33" transform="matrix(1, 0, 0, 1, 0, 0)">
	<g id="g-34">
		<path class="st0" d="M652,46c27.6,0,50,22.4,50,50s-22.4,50-50,50s-50-22.4-50-50S624.4,46,652,46z" style="fill: rgb(255, 255, 255);"/>
	</g>
</g></g><g transform="matrix(0.02916224487125874, 0, 0, 0.02916224487125874, 1120.2814206150379, 32.91848606119305)"><g id="g-35" transform="matrix(1, 0, 0, 1, 0, 0)">
	<g id="g-36">
		<path class="st0" d="M652,46c27.6,0,50,22.4,50,50s-22.4,50-50,50s-50-22.4-50-50S624.4,46,652,46z" style="fill: rgb(255, 255, 255);"/>
	</g>
</g></g><path d="M 1187 408 L 1188.199951171875 410.29998779296875 L 1190.800048828125 410.70001220703125 L 1188.9000244140625 412.6000061035156 L 1189.4000244140625 415.20001220703125 L 1187 414 L 1184.5999755859375 415.20001220703125 L 1185.0999755859375 412.6000061035156 L 1183.199951171875 410.70001220703125 L 1185.800048828125 410.29998779296875 Z" fill="#FFFFFF" transform="matrix(1, 0, 0, 1, -825.0616623918364, -393.8555047848415)"/><g transform="matrix(0.02916224487125874, 0, 0, 0.02916224487125874, 523.5589138819342, 12.248875765800165)"><g id="g-37" transform="matrix(1, 0, 0, 1, 0, 0)">
	<g id="g-38">
		<path class="st0" d="M652,46c27.6,0,50,22.4,50,50s-22.4,50-50,50s-50-22.4-50-50S624.4,46,652,46z" style="fill: rgb(255, 255, 255);"/>
	</g>
</g></g><g transform="matrix(0.02916224487125874, 0, 0, 0.02916224487125874, 841.6910871741779, 14.944911132683586)"><g id="g-39" transform="matrix(1, 0, 0, 1, 0, 0)">
	<g id="g-40">
		<path class="st0" d="M652,46c27.6,0,50,22.4,50,50s-22.4,50-50,50s-50-22.4-50-50S624.4,46,652,46z" style="fill: rgb(255, 255, 255);"/>
	</g>
</g></g><path d="M 1187 408 L 1188.199951171875 410.29998779296875 L 1190.800048828125 410.70001220703125 L 1188.9000244140625 412.6000061035156 L 1189.4000244140625 415.20001220703125 L 1187 414 L 1184.5999755859375 415.20001220703125 L 1185.0999755859375 412.6000061035156 L 1183.199951171875 410.70001220703125 L 1185.800048828125 410.29998779296875 Z" fill="#FFFFFF" transform="matrix(1, 0, 0, 1, -960.76211260167, -273.4325931215525)"/><path d="M 1187 408 L 1188.199951171875 410.29998779296875 L 1190.800048828125 410.70001220703125 L 1188.9000244140625 412.6000061035156 L 1189.4000244140625 415.20001220703125 L 1187 414 L 1184.5999755859375 415.20001220703125 L 1185.0999755859375 412.6000061035156 L 1183.199951171875 410.70001220703125 L 1185.800048828125 410.29998779296875 Z" fill="#FFFFFF" transform="matrix(1, 0, 0, 1, -1061.4140996319843, -319.2651943585707)"/></svg>